<?xml version="1.0" encoding="utf-8"?>
<svg width="800px" height="800px" viewBox="0 0 24 24" fill="currentColor" xmlns="http://www.w3.org/2000/svg">
  <path d="M 21.951 0.154 L 2.182 0.154 C 1.928 0.142 1.673 0.181 1.433 0.267 C 1.193 0.354 0.973 0.487 0.784 0.659 C 0.596 0.831 0.443 1.038 0.335 1.269 C 0.227 1.5 0.165 1.75 0.154 2.005 L 0.154 21.818 C 0.169 22.351 0.387 22.858 0.765 23.236 C 1.142 23.613 1.649 23.831 2.182 23.846 L 21.951 23.846 C 22.469 23.823 22.958 23.598 23.312 23.219 C 23.667 22.84 23.858 22.337 23.846 21.818 L 23.846 2.005 C 23.85 1.757 23.804 1.511 23.709 1.281 C 23.615 1.052 23.475 0.844 23.297 0.671 C 23.12 0.498 22.909 0.362 22.677 0.274 C 22.446 0.185 22.198 0.144 21.951 0.154 Z M 7.558 19.908 L 4.107 19.908 L 4.107 9.35 L 7.558 9.35 L 7.558 19.908 Z M 5.914 7.751 C 5.673 7.759 5.433 7.717 5.209 7.629 C 4.985 7.54 4.782 7.406 4.613 7.235 C 4.443 7.064 4.31 6.859 4.224 6.635 C 4.137 6.41 4.097 6.17 4.107 5.929 C 4.097 5.686 4.137 5.443 4.226 5.216 C 4.315 4.99 4.45 4.784 4.623 4.612 C 4.795 4.441 5.002 4.307 5.23 4.22 C 5.457 4.134 5.7 4.095 5.944 4.108 C 6.184 4.099 6.424 4.141 6.648 4.23 C 6.872 4.318 7.075 4.453 7.245 4.624 C 7.415 4.795 7.547 4.999 7.634 5.224 C 7.721 5.448 7.76 5.689 7.75 5.929 C 7.761 6.172 7.72 6.415 7.632 6.642 C 7.543 6.869 7.408 7.075 7.235 7.246 C 7.062 7.418 6.855 7.551 6.628 7.638 C 6.4 7.725 6.157 7.763 5.914 7.751 Z M 19.907 19.908 L 16.442 19.908 L 16.442 14.133 C 16.442 12.756 15.954 11.808 14.725 11.808 C 14.343 11.811 13.971 11.932 13.661 12.155 C 13.351 12.378 13.117 12.691 12.992 13.052 C 12.896 13.322 12.855 13.609 12.874 13.896 L 12.874 19.908 L 9.468 19.908 L 9.468 9.35 L 12.874 9.35 L 12.874 10.831 C 13.176 10.274 13.627 9.813 14.176 9.496 C 14.725 9.18 15.35 9.022 15.983 9.039 C 18.219 9.039 19.907 10.52 19.907 13.674 L 19.907 19.908 Z" fill="currentColor"/>
</svg>